<?xml version="1.0" standalone="no"?>
<!DOCTYPE svg PUBLIC "-//W3C//DTD SVG 20010904//EN"
 "http://www.w3.org/TR/2001/REC-SVG-20010904/DTD/svg10.dtd">
<svg version="1.0" xmlns="http://www.w3.org/2000/svg"
 width="500.000000pt" height="500.000000pt" viewBox="0 0 500.000000 500.000000"
 preserveAspectRatio="xMidYMid meet">

<g transform="translate(0.000000,500.000000) scale(0.100000,-0.100000)"
fill="#000000" stroke="none">
<path d="M1560 2675 l0 -935 930 0 930 0 0 935 0 935 -930 0 -930 0 0 -935z
m1405 517 c44 -21 65 -42 87 -86 27 -54 22 -140 -13 -190 -31 -47 -108 -86
-168 -86 -81 1 -165 55 -190 123 -23 60 -6 153 37 200 54 60 168 78 247 39z
m-760 2 c45 -21 69 -73 62 -133 -4 -37 -12 -52 -40 -76 l-35 -30 39 -55 c21
-30 38 -58 39 -62 0 -5 -15 -8 -33 -8 -30 0 -36 6 -68 60 l-34 60 -55 -2 -55
-3 -3 -57 c-3 -57 -4 -58 -32 -58 l-30 0 0 190 0 190 106 0 c76 0 115 -4 139
-16z m-76 -835 c39 -66 56 -88 62 -78 5 8 28 48 51 89 39 66 47 75 76 78 17 2
32 1 32 -1 0 -3 -29 -58 -65 -122 -40 -73 -65 -130 -65 -149 0 -17 -3 -48 -6
-68 -6 -34 -10 -38 -35 -38 -29 0 -29 0 -29 66 0 63 -3 71 -69 190 l-70 124
33 0 c30 0 35 -6 85 -91z m681 -69 l0 -160 85 0 85 0 0 -30 0 -30 -115 0 -115
0 0 190 0 190 30 0 30 0 0 -160z"/>
<path d="M2811 3143 c-130 -68 -87 -253 58 -255 108 -1 175 118 117 207 -38
57 -116 79 -175 48z"/>
<path d="M2024 3146 c-3 -7 -4 -42 -2 -77 l3 -64 52 -3 c68 -4 120 18 129 54
9 37 -6 76 -36 91 -35 18 -139 17 -146 -1z"/>
</g>
</svg>
